<?xml version="1.0" ?><svg viewBox="0 0 64 64" xmlns="http://www.w3.org/2000/svg"><g id="a"/><g id="b"/><g id="c"/><g id="d"/><g id="e"/><g id="f"/><g id="g"/><g id="h"/><g id="i"/><g id="j"/><g id="k"/><g id="l"/><g id="m"/><g id="n"/><g id="o"/><g id="p"/><g id="q"/><g id="r"/><g id="s"/><g id="t"/><g id="u"/><g id="v"/><g id="w"/><g id="x"/><g id="y"/><g id="a`"/><g id="aa"/><g id="ab"><path d="M48.35,7.19V56.81h6.69c2.19,0,3.95-1.76,3.95-3.96V11.14c0-2.19-1.76-3.96-3.95-3.96h-6.69Z" fill="#75cdf8" fill-rule="evenodd"/><path d="M41.66,7.19V56.81h6.69c2.19,0,3.96-1.76,3.96-3.96V11.14c0-2.19-1.77-3.96-3.96-3.96h-6.69Z" fill="#f0f3f5" fill-rule="evenodd"/><path d="M34.97,7.19V56.81h6.69c2.19,0,3.95-1.76,3.95-3.96V11.14c0-2.19-1.76-3.96-3.95-3.96h-6.69Z" fill="#75cdf8" fill-rule="evenodd"/><path d="M8.95,7.19h26.01c2.18,0,3.95,1.77,3.95,3.95V52.86c0,2.18-1.77,3.96-3.96,3.96H8.95c-2.18,0-3.95-1.77-3.95-3.95V11.14c0-2.18,1.77-3.95,3.95-3.95Z" fill="#f0f3f5"/><path d="M33.93,32c0,6.61-5.36,11.97-11.97,11.97s-11.97-5.36-11.97-11.97,5.36-11.97,11.97-11.97,11.97,5.36,11.97,11.97Z" fill="#8996a8" fill-rule="evenodd"/><path d="M21.96,25.82c-.29,0-.57,.11-.79,.33l-3.33,3.33c-1.14,1.14-1.14,2.98,0,4.12,.67,.67,1.57,.94,2.43,.83l-.35,1.71c-.23,1.11,.91,2.04,2.04,2.04s2.26-.93,2.04-2.04l-.35-1.71c.86,.11,1.77-.16,2.43-.83,1.14-1.14,1.14-2.98,0-4.12l-3.33-3.33c-.22-.22-.51-.33-.79-.33Z" fill="#e8a3c1" fill-rule="evenodd"/><path d="M8.61,10.78c-.21,.21-.33,.5-.33,.8s.12,.58,.33,.79c.21,.21,.5,.33,.79,.33s.58-.12,.79-.33c.21-.21,.33-.5,.33-.79s-.12-.58-.33-.8c-.21-.21-.5-.33-.79-.33s-.58,.12-.79,.33Z" fill="#8996a8" fill-rule="evenodd"/><path d="M12.6,10.78c-.21,.21-.33,.5-.33,.79s.12,.58,.33,.8c.43,.43,1.15,.43,1.59,0,.21-.21,.33-.5,.33-.8s-.12-.58-.33-.79c-.21-.21-.5-.33-.79-.33s-.58,.12-.79,.33Z" fill="#8996a8" fill-rule="evenodd"/><path d="M29.74,51.63c-.21,.21-.33,.5-.33,.79s.12,.58,.33,.79c.21,.21,.5,.33,.79,.33s.58-.12,.79-.33c.21-.21,.33-.5,.33-.79s-.12-.58-.33-.79c-.44-.44-1.15-.44-1.59,0Z" fill="#8996a8" fill-rule="evenodd"/><path d="M33.72,51.63c-.21,.21-.33,.5-.33,.79s.12,.58,.33,.79c.44,.44,1.15,.44,1.59,0,.21-.21,.33-.5,.33-.79s-.12-.58-.33-.79c-.21-.21-.5-.33-.79-.33s-.58,.12-.79,.33Z" fill="#8996a8" fill-rule="evenodd"/></g><g id="ac"/><g id="ad"/><g id="ae"/><g id="af"/><g id="ag"/><g id="ah"/><g id="ai"/><g id="aj"/><g id="ak"/><g id="al"/><g id="am"/><g id="an"/><g id="ao"/><g id="ap"/><g id="aq"/><g id="ar"/><g id="as"/><g id="at"/><g id="au"/><g id="av"/><g id="aw"/><g id="ax"/></svg>